#!OML:ASF X:\für Bonn\!DataBase\2005_08_12_Daniel\c3d\Daniel.ASF
:FULLY-SPECIFIED
:DEGREES
66
root -0.437496 17.3456 1.11199 71.4029 -79.0744 -96.2094
lowerback 41.7404 -13.5317 0.543845
upperback 11.1757 -18.5626 -1.0954
thorax -7.0225 -9.64293 6.09034
lowerneck 0.0663869 8.50797 -0.668593
upperneck 9.9628 11.5824 -5.95108
head 3.58536 5.34952 -1.46817
rclavicle 2.94201e-014 -2.38542e-014
rhumerus -51.8558 10.9592 -78.071
rradius 62.2423
rwrist 4.24084
rhand -41.4744 45.7343
rfingers 7.12502
rthumb -14.3887 16.253
lclavicle 2.94201e-014 -2.38542e-014
lhumerus 38.6032 1.2733 69.8652
lradius 128.093
lwrist 27.7694
lhand -19.3123 -17.9182
lfingers 7.12502
lthumb 7.00372 11.946
rfemur -55.1496 -12.3882 26.5391
rtibia 104.863
rfoot 0.10319 0.70197
rtoes -11.2967
lfemur 11.5745 -12.6711 -16.938
ltibia 31.3953
lfoot -24.8567 13.2931
ltoes 6.24413
67
root -0.458671 17.3391 1.10541 73.8491 -79.1783 -98.1549
lowerback 40.9583 -13.3128 0.673167
upperback 10.8759 -18.1884 -0.957819
thorax -7.14626 -9.42709 5.96382
lowerneck 0.132999 8.41491 -0.540751
upperneck 10.0888 11.4585 -5.96643
head 3.62308 5.28813 -1.50008
rclavicle -7.87187e-014 3.18055e-014
rhumerus -51.1528 11.2462 -78.0576
rradius 62.236
rwrist 4.10107
rhand -41.4615 45.5923
rfingers 7.12502
rthumb -14.3763 16.1101
lclavicle -7.87187e-014 3.18055e-014
lhumerus 37.7695 1.30096 70.2036
lradius 128.045
lwrist 27.6142
lhand -19.0145 -18.0558
lfingers 7.12502
lthumb 7.29116 11.7986
rfemur -52.9406 -12.0558 25.8985
rtibia 102.984
rfoot 0.46811 0.027409
rtoes -11.9612
lfemur 11.0095 -12.8151 -17.0888
ltibia 31.7956
lfoot -25.3631 13.7445
ltoes 6.20691
68
root -0.478071 17.3341 1.09912 76.5833 -79.2766 -100.394
lowerback 40.202 -13.0535 0.781494
upperback 10.5695 -17.7732 -0.808742
thorax -7.27219 -9.19346 5.84558
lowerneck 0.206267 8.31704 -0.399831
upperneck 10.2144 11.3298 -6.01092
head 3.66233 5.22381 -1.54436
rclavicle 9.10434e-014 1.43125e-014
rhumerus -50.4936 11.5344 -78.0552
rradius 62.2646
rwrist 4.07503
rhand -41.5445 45.3307
rfingers 7.12502
rthumb -14.4563 15.8543
lclavicle 9.10434e-014 1.43125e-014
lhumerus 36.9886 1.31898 70.575
lradius 127.862
lwrist 27.4747
lhand -18.809 -18.1214
lfingers 7.12502
lthumb 7.48947 11.726
rfemur -50.7458 -11.6235 25.2774
rtibia 101.008
rfoot 0.821757 -0.684336
rtoes -12.2925
lfemur 10.48 -12.9345 -17.2449
ltibia 32.1375
lfoot -25.8568 14.2206
ltoes 6.17668
69
root -0.499093 17.3323 1.08932 78.985 -79.3411 -102.293
lowerback 39.4175 -12.8281 0.920749
upperback 10.2613 -17.3884 -0.668011
thorax -7.39174 -8.97449 5.71254
lowerneck 0.354032 8.21876 -0.299259
upperneck 10.2972 11.1929 -6.01519
head 3.66609 5.15845 -1.573
rclavicle -4.73108e-014 8.74653e-015
rhumerus -49.8671 11.8078 -78.1022
rradius 62.272
rwrist 4.06154
rhand -41.7015 45.0825
rfingers 7.12502
rthumb -14.6076 15.617
lclavicle -4.73108e-014 8.74653e-015
lhumerus 36.2841 1.37959 70.829
lradius 127.603
lwrist 27.4382
lhand -18.7936 -18.0794
lfingers 7.12502
lthumb 7.50441 11.7674
rfemur -48.5407 -11.2034 24.6935
rtibia 98.9438
rfoot 1.17802 -1.45886
rtoes -12.3961
lfemur 9.94677 -13.1044 -17.369
ltibia 32.4564
lfoot -26.3077 14.6794
ltoes 6.19839
70
root -0.519337 17.3288 1.07883 81.4312 -79.4299 -104.247
lowerback 38.6545 -12.5815 1.02118
upperback 9.95051 -16.9938 -0.531882
thorax -7.50721 -8.75228 5.59083
lowerneck 0.560108 8.12231 -0.236963
upperneck 10.323 11.0545 -6.01801
head 3.63588 5.09412 -1.59795
rclavicle 7.97127e-014 -4.53229e-014
rhumerus -49.2806 12.0929 -78.1731
rradius 62.3036
rwrist 4.09229
rhand -41.8944 44.8837
rfingers 7.12502
rthumb -14.7934 15.4317
lclavicle 7.97127e-014 -4.53229e-014
lhumerus 35.6545 1.45369 71.0067
lradius 127.365
lwrist 27.4545
lhand -18.877 -17.8296
lfingers 7.12502
lthumb 7.42386 12.0201
rfemur -46.3488 -10.7468 24.094
rtibia 96.7915
rfoot 1.51447 -2.27408
rtoes -12.2509
lfemur 9.42239 -13.2642 -17.5317
ltibia 32.7819
lfoot -26.7817 15.1242
ltoes 6.14016
71
root -0.538393 17.3221 1.06685 83.9113 -79.4948 -106.222
lowerback 37.8826 -12.3422 1.14615
upperback 9.64051 -16.6016 -0.415586
thorax -7.62271 -8.53125 5.43772
lowerneck 0.820162 8.03317 -0.148378
upperneck 10.3241 10.9221 -6.01659
head 3.58854 5.0358 -1.62795
rclavicle 1.12313e-013 -5.88403e-014
rhumerus -48.7116 12.3341 -78.2814
rradius 62.305
rwrist 4.17253
rhand -42.0631 44.674
rfingers 7.12502
rthumb -14.9559 15.234
lclavicle 1.12313e-013 -5.88403e-014
lhumerus 34.9357 1.53961 71.1121
lradius 127.24
lwrist 27.5571
lhand -19.0416 -17.4534
lfingers 7.12502
lthumb 7.26503 12.4019
rfemur -44.1945 -10.2583 23.5553
rtibia 94.532
rfoot 1.85262 -3.10907
rtoes -12.3566
lfemur 8.86079 -13.4211 -17.659
ltibia 33.1295
lfoot -27.2701 15.5176
ltoes 6.1624
72
root -0.556151 17.3134 1.05386 86.4593 -79.554 -108.26
lowerback 37.1408 -12.0904 1.25489
upperback 9.31368 -16.1983 -0.284722
thorax -7.75237 -8.3052 5.30874
lowerneck 1.09644 7.9446 -0.12802
upperneck 10.2942 10.7877 -5.98571
head 3.52051 4.97638 -1.63769
rclavicle 3.00165e-014 -7.55382e-014
rhumerus -48.1734 12.6295 -78.3986
rradius 62.3389
rwrist 4.09493
rhand -42.2374 44.3696
rfingers 7.12502
rthumb -15.1239 14.9421
lclavicle 3.00165e-014 -7.55382e-014
lhumerus 34.129 1.58216 71.244
lradius 127.189
lwrist 27.6119
lhand -19.2398 -17.0876
lfingers 7.12502
lthumb 7.07363 12.7742
rfemur -42.0858 -9.68199 23.0687
rtibia 92.1645
rfoot 2.27439 -4.00395
rtoes -12.193
lfemur 8.27221 -13.5579 -17.7844
ltibia 33.4967
lfoot -27.7433 15.9233
ltoes 6.13277
73
root -0.574439 17.3043 1.03988 89.1211 -79.5997 -110.432
lowerback 36.4056 -11.8279 1.37348
upperback 9.00629 -15.7838 -0.183562
thorax -7.86667 -8.07631 5.13948
lowerneck 1.36678 7.85199 -0.0426542
upperneck 10.2668 10.6511 -5.99068
head 3.46151 4.91689 -1.6695
rclavicle 8.74653e-015 -2.62396e-014
rhumerus -47.6074 12.8794 -78.5458
rradius 62.311
rwrist 4.03027
rhand -42.3277 44.1489
rfingers 7.12502
rthumb -15.2108 14.7281
lclavicle 8.74653e-015 -2.62396e-014
lhumerus 33.3329 1.61923 71.3628
lradius 127.12
lwrist 27.6849
lhand -19.3801 -16.7487
lfingers 7.12502
lthumb 6.93826 13.1176
rfemur -39.9948 -8.99629 22.6413
rtibia 89.6928
rfoot 2.76626 -4.87954
rtoes -11.7234
lfemur 7.71541 -13.7259 -17.9291
ltibia 33.871
lfoot -28.2734 16.3286
ltoes 6.1376
74
root -0.593745 17.2979 1.02458 91.7113 -79.6413 -112.505
lowerback 35.6223 -11.5701 1.49006
upperback 8.70801 -15.3789 -0.079623
thorax -7.94514 -7.85556 4.96851
lowerneck 1.65098 7.7745 -0.0371393
upperneck 10.2042 10.5295 -5.93311
head 3.37861 4.86581 -1.66752
rclavicle -3.45885e-014 -1.51076e-014
rhumerus -47.0497 13.1428 -78.6847
rradius 62.3155
rwrist 3.86215
rhand -42.3209 43.9403
rfingers 7.12502
rthumb -15.2043 14.519
lclavicle -3.45885e-014 -1.51076e-014
lhumerus 32.4908 1.63456 71.446
lradius 127.019
lwrist 27.6816
lhand -19.612 -16.4691
lfingers 7.12502
lthumb 6.71437 13.4045
rfemur -37.9933 -8.24867 22.2599
rtibia 87.1449
rfoot 3.29105 -5.73213
rtoes -11.1739
lfemur 7.13004 -13.8571 -18.0471
ltibia 34.2219
lfoot -28.7466 16.712
ltoes 6.11027
75
root -0.614239 17.292 1.0073 94.3733 -79.6742 -114.67
lowerback 34.7893 -11.2967 1.57401
upperback 8.4905 -14.9694 0.0135344
thorax -8.02863 -7.63369 4.81734
lowerneck 1.94363 7.70114 -0.0530821
upperneck 10.1386 10.4149 -5.90803
head 3.29479 4.81573 -1.67247
rclavicle 2.62396e-014 -1.82882e-014
rhumerus -46.4845 13.3985 -78.8225
rradius 62.2721
rwrist 3.66059
rhand -42.2765 43.8791
rfingers 7.12502
rthumb -15.1615 14.4545
lclavicle 2.62396e-014 -1.82882e-014
lhumerus 31.5529 1.70535 71.5039
lradius 126.893
lwrist 27.7022
lhand -19.7968 -16.343
lfingers 7.12502
lthumb 6.53596 13.5362
rfemur -36.0229 -7.43673 21.9058
rtibia 84.5511
rfoot 3.79642 -6.52679
rtoes -10.2924
lfemur 6.59977 -14.016 -18.1845
ltibia 34.537
lfoot -29.2485 17.1013
ltoes 6.12238
76
root -0.635373 17.2866 0.989294 97.052 -79.6839 -116.857
lowerback 34.0094 -11.0313 1.7183
upperback 8.21699 -14.5541 0.0829094
thorax -8.08154 -7.41217 4.59215
lowerneck 2.1992 7.61369 -0.0592641
upperneck 10.0872 10.2806 -5.82865
head 3.21908 4.75763 -1.65987
rclavicle 3.18055e-015 -2.8625e-014
rhumerus -45.9603 13.5398 -79.0101
rradius 62.2789
rwrist 3.52419
rhand -42.2118 43.6698
rfingers 7.12502
rthumb -15.0992 14.2405
lclavicle 3.18055e-015 -2.8625e-014
lhumerus 30.5623 1.77095 71.5352
lradius 126.753
lwrist 27.7322
lhand -19.897 -16.2898
lfingers 7.12502
lthumb 6.4393 13.5923
rfemur -34.1251 -6.58539 21.5895
rtibia 81.9331
rfoot 4.22216 -7.2566
rtoes -9.07043
lfemur 6.111 -14.1789 -18.3128
ltibia 34.7982
lfoot -29.7466 17.4815
ltoes 6.13185
